<svg width="164" height="299" viewBox="0 0 164 299" fill="none" xmlns="http://www.w3.org/2000/svg">
<path d="M8.42596 206.807H157.029V271.349C157.029 279.633 150.313 286.349 142.029 286.349H23.426C15.1417 286.349 8.42596 279.633 8.42596 271.349V206.807Z" fill="url(#paint0_linear_14_18)"/>
<g style="mix-blend-mode:color-burn" filter="url(#filter0_d_14_18)">
<path fill-rule="evenodd" clip-rule="evenodd" d="M10.3707 222.061L8.6224 217.413V271.521C8.6224 279.806 15.3381 286.521 23.6224 286.521H142.225C148.031 286.521 153.067 283.223 155.56 278.397C152.809 281.739 148.64 283.87 143.973 283.87H25.3707C17.0864 283.87 10.3707 277.154 10.3707 268.87V222.061Z" fill="url(#paint1_linear_14_18)"/>
</g>
<line x1="7.55183" y1="207.994" x2="157.903" y2="207.994" stroke="#5CA968" stroke-width="10"/>
<path d="M11.3037 224.891L15.8969 212.68H6.71057L11.3037 224.891Z" fill="#5CA968"/>
<path d="M34.9937 224.891L39.5869 212.68H30.4006L34.9937 224.891Z" fill="#5CA968"/>
<path d="M27.0381 224.891L31.6313 212.68H22.445L27.0381 224.891Z" fill="#5CA968"/>
<path d="M19.0825 224.891L23.6757 212.68H14.4894L19.0825 224.891Z" fill="#5CA968"/>
<path d="M42.9493 224.891L47.5425 212.68H38.3562L42.9493 224.891Z" fill="#5CA968"/>
<path d="M66.6393 224.891L71.2325 212.68H62.0461L66.6393 224.891Z" fill="#5CA968"/>
<path d="M74.5949 224.891L79.1881 212.68H70.0017L74.5949 224.891Z" fill="#5CA968"/>
<path d="M58.6837 224.891L63.2769 212.68H54.0906L58.6837 224.891Z" fill="#5CA968"/>
<path d="M50.7281 224.891L55.3213 212.68H46.135L50.7281 224.891Z" fill="#5CA968"/>
<path d="M98.4617 224.891L103.055 212.68H93.8685L98.4617 224.891Z" fill="#5CA968"/>
<path d="M90.6829 224.891L95.276 212.68H86.0897L90.6829 224.891Z" fill="#5CA968"/>
<path d="M82.7273 224.891L87.3205 212.68H78.1341L82.7273 224.891Z" fill="#5CA968"/>
<path d="M106.417 224.891L111.01 212.68H101.824L106.417 224.891Z" fill="#5CA968"/>
<path d="M130.107 224.891L134.7 212.68H125.514L130.107 224.891Z" fill="#5CA968"/>
<path d="M138.063 224.891L142.656 212.68H133.47L138.063 224.891Z" fill="#5CA968"/>
<path d="M146.018 224.891L150.612 212.68H141.425L146.018 224.891Z" fill="#5CA968"/>
<path d="M153.974 224.891L158.567 212.68H149.381L153.974 224.891Z" fill="#5CA968"/>
<path d="M122.152 224.891L126.745 212.68H117.559L122.152 224.891Z" fill="#5CA968"/>
<path d="M114.196 224.891L118.789 212.68H109.603L114.196 224.891Z" fill="#5CA968"/>
<g style="mix-blend-mode:screen" opacity="0.2">
<ellipse cx="9.35577" cy="19.9202" rx="9.35577" ry="19.9202" transform="matrix(0.0091288 -0.999958 0.999954 0.00961598 115.824 218.948)" fill="url(#paint2_radial_14_18)"/>
</g>
<path d="M100.339 140.182C100.339 145.65 98.467 150.082 93.9768 150.082C89.4867 150.082 87.6142 145.65 87.6142 140.182C87.6142 134.715 91.856 128.131 93.9768 125.118C96.0977 128.131 100.339 134.715 100.339 140.182Z" fill="url(#paint3_radial_14_18)"/>
<path d="M100.339 140.182C100.339 145.65 98.467 150.082 93.9768 150.082C89.4867 150.082 87.6142 145.65 87.6142 140.182C87.6142 134.715 91.856 128.131 93.9768 125.118C96.0977 128.131 100.339 134.715 100.339 140.182Z" fill="url(#paint4_radial_14_18)"/>
<path d="M100.339 140.182C100.339 145.65 98.467 150.082 93.9768 150.082C89.4867 150.082 87.6142 145.65 87.6142 140.182C87.6142 134.715 91.856 128.131 93.9768 125.118C96.0977 128.131 100.339 134.715 100.339 140.182Z" fill="url(#paint5_radial_14_18)"/>
<path d="M100.339 140.182C100.339 145.65 98.467 150.082 93.9768 150.082C89.4867 150.082 87.6142 145.65 87.6142 140.182C87.6142 134.715 91.856 128.131 93.9768 125.118C96.0977 128.131 100.339 134.715 100.339 140.182Z" fill="url(#paint6_radial_14_18)"/>
<g style="mix-blend-mode:color-burn" filter="url(#filter1_d_14_18)">
<path fill-rule="evenodd" clip-rule="evenodd" d="M99.6986 145.305C98.6776 146.661 97.2363 147.471 95.3164 147.471C90.8262 147.471 88.9537 143.039 88.9537 137.571C88.9537 135.349 89.6545 132.942 90.6289 130.665C89.0266 133.663 87.6142 137.19 87.6142 140.345C87.6142 145.812 89.4867 150.245 93.9768 150.245C96.9825 150.245 98.8153 148.259 99.6986 145.305Z" fill="url(#paint7_radial_14_18)" fill-opacity="0.2" shape-rendering="crispEdges"/>
</g>
<g style="mix-blend-mode:screen" opacity="0.5">
<ellipse cx="94.1204" cy="134.323" rx="10.0463" ry="9.70833" fill="url(#paint8_radial_14_18)"/>
</g>
<g style="mix-blend-mode:screen" opacity="0.5">
<ellipse cx="90.6281" cy="140.374" rx="9.71142" ry="9.70833" fill="url(#paint9_radial_14_18)"/>
</g>
<path d="M83.5 121.889C83.5 128.857 81.0924 134.506 75.3194 134.506C69.5464 134.506 67.1389 128.857 67.1389 121.889C67.1389 114.921 72.5926 106.529 75.3194 102.689C78.0463 106.529 83.5 114.921 83.5 121.889Z" fill="url(#paint10_radial_14_18)"/>
<path d="M83.5 121.889C83.5 128.857 81.0924 134.506 75.3194 134.506C69.5464 134.506 67.1389 128.857 67.1389 121.889C67.1389 114.921 72.5926 106.529 75.3194 102.689C78.0463 106.529 83.5 114.921 83.5 121.889Z" fill="url(#paint11_radial_14_18)"/>
<path d="M83.5 121.889C83.5 128.857 81.0924 134.506 75.3194 134.506C69.5464 134.506 67.1389 128.857 67.1389 121.889C67.1389 114.921 72.5926 106.529 75.3194 102.689C78.0463 106.529 83.5 114.921 83.5 121.889Z" fill="url(#paint12_radial_14_18)"/>
<path d="M83.5 121.889C83.5 128.857 81.0924 134.506 75.3194 134.506C69.5464 134.506 67.1389 128.857 67.1389 121.889C67.1389 114.921 72.5926 106.529 75.3194 102.689C78.0463 106.529 83.5 114.921 83.5 121.889Z" fill="url(#paint13_radial_14_18)"/>
<g style="mix-blend-mode:color-burn" filter="url(#filter2_d_14_18)">
<path fill-rule="evenodd" clip-rule="evenodd" d="M82.676 128.418C81.3632 130.145 79.5101 131.178 77.0417 131.178C71.2687 131.178 68.8611 125.529 68.8611 118.561C68.8611 115.729 69.7622 112.661 71.0149 109.76C68.9548 113.58 67.1389 118.075 67.1389 122.096C67.1389 129.064 69.5464 134.713 75.3194 134.713C79.1839 134.713 81.5403 132.182 82.676 128.418Z" fill="url(#paint14_radial_14_18)" fill-opacity="0.2" shape-rendering="crispEdges"/>
</g>
<g style="mix-blend-mode:screen" opacity="0.5">
<ellipse cx="12.919" cy="12.3709" rx="12.919" ry="12.3709" transform="matrix(0.996398 0.0847968 -0.0805289 0.996752 64.7348 99.8685)" fill="url(#paint15_radial_14_18)"/>
</g>
<g style="mix-blend-mode:screen" opacity="0.5">
<ellipse cx="71.0139" cy="122.133" rx="12.4861" ry="12.3731" fill="url(#paint16_radial_14_18)"/>
</g>
<path d="M103.306 204.273C103.306 198.531 101.355 193.023 97.883 188.963C94.4109 184.902 89.7019 182.621 84.7917 182.621C79.8815 182.621 75.1724 184.902 71.7004 188.963C68.2283 193.023 66.2778 198.531 66.2778 204.273L84.7917 204.273H103.306Z" fill="url(#paint17_linear_14_18)"/>
<g style="mix-blend-mode:color-burn" filter="url(#filter3_d_14_18)">
<path fill-rule="evenodd" clip-rule="evenodd" d="M69.638 191.458C68.5685 194.231 68 197.263 68 200.363L86.5139 200.363H103.057C103.222 201.524 103.306 202.706 103.306 203.898H84.7917L66.2778 203.898C66.2778 199.416 67.4659 195.078 69.638 191.458Z" fill="url(#paint18_radial_14_18)"/>
</g>
<g style="mix-blend-mode:screen" opacity="0.3">
<ellipse cx="10.78" cy="10.1492" rx="10.78" ry="10.1492" transform="matrix(0.970108 -0.242674 0.231051 0.972942 79.7389 182.874)" fill="url(#paint19_radial_14_18)"/>
</g>
<path d="M79.625 185.968C72.2613 169.9 67.1003 166.169 65.6192 166.423C65.5519 166.446 65.4844 166.47 65.4167 166.495C65.4739 166.461 65.5415 166.436 65.6192 166.423C71.1177 164.544 75.3455 168.569 77.4722 170.594C81.1705 174.116 75.3195 165.47 79.1945 152.146C82.2945 141.487 83.6435 136.26 83.5 138.31L88.6667 174.694C90.1019 170.765 94.5222 161.063 100.722 161.883C96.7037 168.715 89.5278 183.2 92.9722 186.48L86.5139 184.43L79.625 185.968Z" fill="url(#paint20_radial_14_18)"/>
<g style="mix-blend-mode:color-burn" filter="url(#filter4_d_14_18)">
<path fill-rule="evenodd" clip-rule="evenodd" d="M70.1023 165.944C72.6077 168.566 76.1682 173.746 80.4861 183.168L87.375 181.631L92.0717 183.121C92.0132 184.546 92.2753 185.668 92.9722 186.332L86.5139 184.282L79.625 185.82C72.2613 169.752 67.1003 166.021 65.6192 166.275C67.2295 165.724 68.7308 165.68 70.1023 165.944ZM78.302 167.765C78.3125 167.775 78.3229 167.785 78.3333 167.795C79.867 169.255 79.7584 168.623 79.3823 166.432C78.8514 163.341 77.7875 157.145 80.0556 149.347C80.8283 146.69 81.4922 144.37 82.0513 142.417C82.5816 140.565 83.0177 139.041 83.3629 137.872C83.0754 138.483 82.3635 140.97 81.1902 145.069C80.631 147.022 79.9671 149.341 79.1944 151.998C77.2132 158.81 77.7745 164.399 78.302 167.765ZM100.108 161.687C97.7684 165.962 95.0103 171.688 93.6962 176.314C95.5462 171.183 98.582 165.373 100.722 161.734C100.516 161.707 100.311 161.691 100.108 161.687ZM65.4167 166.346C65.4739 166.312 65.5415 166.288 65.6192 166.275C65.5519 166.298 65.4844 166.322 65.4167 166.346Z" fill="url(#paint21_linear_14_18)"/>
</g>
<g style="mix-blend-mode:screen" opacity="0.3">
<ellipse cx="11.579" cy="12.2905" rx="11.579" ry="12.2905" transform="matrix(0.99644 -0.0843015 0.0800582 0.99679 70.3738 156.658)" fill="url(#paint22_radial_14_18)"/>
</g>
<path d="M45 0H126V5C126 10.5228 121.523 15 116 15H55C49.4772 15 45 10.5228 45 5V0Z" fill="black"/>
<rect x="8.5" y="2.5" width="150" height="284" rx="17.5" stroke="black" stroke-width="5"/>
<defs>
<filter id="filter0_d_14_18" x="0.622398" y="213.413" width="162.938" height="85.1085" filterUnits="userSpaceOnUse" color-interpolation-filters="sRGB">
<feFlood flood-opacity="0" result="BackgroundImageFix"/>
<feColorMatrix in="SourceAlpha" type="matrix" values="0 0 0 0 0 0 0 0 0 0 0 0 0 0 0 0 0 0 127 0" result="hardAlpha"/>
<feOffset dy="4"/>
<feGaussianBlur stdDeviation="4"/>
<feComposite in2="hardAlpha" operator="out"/>
<feColorMatrix type="matrix" values="0 0 0 0 0 0 0 0 0 0 0 0 0 0 0 0 0 0 0.25 0"/>
<feBlend mode="normal" in2="BackgroundImageFix" result="effect1_dropShadow_14_18"/>
<feBlend mode="normal" in="SourceGraphic" in2="effect1_dropShadow_14_18" result="shape"/>
</filter>
<filter id="filter1_d_14_18" x="79.6142" y="126.665" width="28.0844" height="35.5792" filterUnits="userSpaceOnUse" color-interpolation-filters="sRGB">
<feFlood flood-opacity="0" result="BackgroundImageFix"/>
<feColorMatrix in="SourceAlpha" type="matrix" values="0 0 0 0 0 0 0 0 0 0 0 0 0 0 0 0 0 0 127 0" result="hardAlpha"/>
<feOffset dy="4"/>
<feGaussianBlur stdDeviation="4"/>
<feComposite in2="hardAlpha" operator="out"/>
<feColorMatrix type="matrix" values="0 0 0 0 0 0 0 0 0 0 0 0 0 0 0 0 0 0 0.25 0"/>
<feBlend mode="normal" in2="BackgroundImageFix" result="effect1_dropShadow_14_18"/>
<feBlend mode="normal" in="SourceGraphic" in2="effect1_dropShadow_14_18" result="shape"/>
</filter>
<filter id="filter2_d_14_18" x="59.1389" y="105.76" width="31.5371" height="40.9534" filterUnits="userSpaceOnUse" color-interpolation-filters="sRGB">
<feFlood flood-opacity="0" result="BackgroundImageFix"/>
<feColorMatrix in="SourceAlpha" type="matrix" values="0 0 0 0 0 0 0 0 0 0 0 0 0 0 0 0 0 0 127 0" result="hardAlpha"/>
<feOffset dy="4"/>
<feGaussianBlur stdDeviation="4"/>
<feComposite in2="hardAlpha" operator="out"/>
<feColorMatrix type="matrix" values="0 0 0 0 0 0 0 0 0 0 0 0 0 0 0 0 0 0 0.25 0"/>
<feBlend mode="normal" in2="BackgroundImageFix" result="effect1_dropShadow_14_18"/>
<feBlend mode="normal" in="SourceGraphic" in2="effect1_dropShadow_14_18" result="shape"/>
</filter>
<filter id="filter3_d_14_18" x="58.2778" y="187.458" width="53.0278" height="28.4399" filterUnits="userSpaceOnUse" color-interpolation-filters="sRGB">
<feFlood flood-opacity="0" result="BackgroundImageFix"/>
<feColorMatrix in="SourceAlpha" type="matrix" values="0 0 0 0 0 0 0 0 0 0 0 0 0 0 0 0 0 0 127 0" result="hardAlpha"/>
<feOffset dy="4"/>
<feGaussianBlur stdDeviation="4"/>
<feComposite in2="hardAlpha" operator="out"/>
<feColorMatrix type="matrix" values="0 0 0 0 0 0 0 0 0 0 0 0 0 0 0 0 0 0 0.25 0"/>
<feBlend mode="normal" in2="BackgroundImageFix" result="effect1_dropShadow_14_18"/>
<feBlend mode="normal" in="SourceGraphic" in2="effect1_dropShadow_14_18" result="shape"/>
</filter>
<filter id="filter4_d_14_18" x="57.4167" y="133.872" width="51.3056" height="64.4604" filterUnits="userSpaceOnUse" color-interpolation-filters="sRGB">
<feFlood flood-opacity="0" result="BackgroundImageFix"/>
<feColorMatrix in="SourceAlpha" type="matrix" values="0 0 0 0 0 0 0 0 0 0 0 0 0 0 0 0 0 0 127 0" result="hardAlpha"/>
<feOffset dy="4"/>
<feGaussianBlur stdDeviation="4"/>
<feComposite in2="hardAlpha" operator="out"/>
<feColorMatrix type="matrix" values="0 0 0 0 0 0 0 0 0 0 0 0 0 0 0 0 0 0 0.25 0"/>
<feBlend mode="normal" in2="BackgroundImageFix" result="effect1_dropShadow_14_18"/>
<feBlend mode="normal" in="SourceGraphic" in2="effect1_dropShadow_14_18" result="shape"/>
</filter>
<linearGradient id="paint0_linear_14_18" x1="156.351" y1="220.948" x2="48.4177" y2="270.419" gradientUnits="userSpaceOnUse">
<stop stop-color="#462525"/>
<stop offset="1" stop-color="#AC5A5A"/>
</linearGradient>
<linearGradient id="paint1_linear_14_18" x1="50.0689" y1="245.252" x2="47.393" y2="251.857" gradientUnits="userSpaceOnUse">
<stop stop-color="#462525"/>
<stop offset="1" stop-color="#AC5A5A"/>
</linearGradient>
<radialGradient id="paint2_radial_14_18" cx="0" cy="0" r="1" gradientUnits="userSpaceOnUse" gradientTransform="translate(11.893 20.0961) rotate(87.7451) scale(29.722 7.69698)">
<stop stop-color="#D9D9D9"/>
<stop offset="0.501" stop-color="#98C09E" stop-opacity="0.479"/>
<stop offset="1" stop-color="#5CA968" stop-opacity="0"/>
</radialGradient>
<radialGradient id="paint3_radial_14_18" cx="0" cy="0" r="1" gradientUnits="userSpaceOnUse" gradientTransform="translate(93.642 144.881) rotate(-52.7532) scale(20.4716 10.7105)">
<stop stop-color="#00D1FF"/>
<stop offset="1" stop-color="#3297F4"/>
</radialGradient>
<radialGradient id="paint4_radial_14_18" cx="0" cy="0" r="1" gradientUnits="userSpaceOnUse" gradientTransform="translate(93.642 144.881) rotate(-52.7532) scale(20.4716 10.7105)">
<stop stop-color="#00D1FF"/>
<stop offset="1" stop-color="#3297F4"/>
</radialGradient>
<radialGradient id="paint5_radial_14_18" cx="0" cy="0" r="1" gradientUnits="userSpaceOnUse" gradientTransform="translate(93.642 144.881) rotate(-52.7532) scale(20.4716 10.7105)">
<stop stop-color="#00D1FF"/>
<stop offset="1" stop-color="#3297F4"/>
</radialGradient>
<radialGradient id="paint6_radial_14_18" cx="0" cy="0" r="1" gradientUnits="userSpaceOnUse" gradientTransform="translate(93.642 144.881) rotate(-52.7532) scale(20.4716 10.7105)">
<stop stop-color="#00D1FF"/>
<stop offset="1" stop-color="#3297F4"/>
</radialGradient>
<radialGradient id="paint7_radial_14_18" cx="0" cy="0" r="1" gradientUnits="userSpaceOnUse" gradientTransform="translate(93.642 145.044) rotate(-52.7532) scale(20.4716 10.7105)">
<stop stop-color="#00D1FF"/>
<stop offset="1" stop-color="#3297F4"/>
</radialGradient>
<radialGradient id="paint8_radial_14_18" cx="0" cy="0" r="1" gradientUnits="userSpaceOnUse" gradientTransform="translate(96.1296 137.097) rotate(70.3172) scale(9.94252 1.89696)">
<stop stop-color="#D9D9D9"/>
<stop offset="0.5" stop-color="#85B8E6" stop-opacity="0.5"/>
<stop offset="1" stop-color="#3297F4" stop-opacity="0"/>
</radialGradient>
<radialGradient id="paint9_radial_14_18" cx="0" cy="0" r="1" gradientUnits="userSpaceOnUse" gradientTransform="translate(92.5704 143.148) rotate(70.9252) scale(9.90549 5.00249)">
<stop stop-color="#D9D9D9"/>
<stop offset="0.5" stop-color="#85B8E6" stop-opacity="0.5"/>
<stop offset="1" stop-color="#3297F4" stop-opacity="0"/>
</radialGradient>
<radialGradient id="paint10_radial_14_18" cx="0" cy="0" r="1" gradientUnits="userSpaceOnUse" gradientTransform="translate(74.8889 127.877) rotate(-52.5107) scale(26.1752 13.7262)">
<stop stop-color="#00D1FF"/>
<stop offset="1" stop-color="#3297F4"/>
</radialGradient>
<radialGradient id="paint11_radial_14_18" cx="0" cy="0" r="1" gradientUnits="userSpaceOnUse" gradientTransform="translate(74.8889 127.877) rotate(-52.5107) scale(26.1752 13.7262)">
<stop stop-color="#00D1FF"/>
<stop offset="1" stop-color="#3297F4"/>
</radialGradient>
<radialGradient id="paint12_radial_14_18" cx="0" cy="0" r="1" gradientUnits="userSpaceOnUse" gradientTransform="translate(74.8889 127.877) rotate(-52.5107) scale(26.1752 13.7262)">
<stop stop-color="#00D1FF"/>
<stop offset="1" stop-color="#3297F4"/>
</radialGradient>
<radialGradient id="paint13_radial_14_18" cx="0" cy="0" r="1" gradientUnits="userSpaceOnUse" gradientTransform="translate(74.8889 127.877) rotate(-52.5107) scale(26.1752 13.7262)">
<stop stop-color="#00D1FF"/>
<stop offset="1" stop-color="#3297F4"/>
</radialGradient>
<radialGradient id="paint14_radial_14_18" cx="0" cy="0" r="1" gradientUnits="userSpaceOnUse" gradientTransform="translate(74.8889 128.085) rotate(-52.5107) scale(26.1752 13.7262)">
<stop stop-color="#00D1FF"/>
<stop offset="1" stop-color="#3297F4"/>
</radialGradient>
<radialGradient id="paint15_radial_14_18" cx="0" cy="0" r="1" gradientUnits="userSpaceOnUse" gradientTransform="translate(15.5028 15.9055) rotate(70.1507) scale(12.6826 2.43685)">
<stop stop-color="#D9D9D9"/>
<stop offset="0.5" stop-color="#85B8E6" stop-opacity="0.5"/>
<stop offset="1" stop-color="#3297F4" stop-opacity="0"/>
</radialGradient>
<radialGradient id="paint16_radial_14_18" cx="0" cy="0" r="1" gradientUnits="userSpaceOnUse" gradientTransform="translate(73.5111 125.668) rotate(70.7694) scale(12.6363 6.4257)">
<stop stop-color="#D9D9D9"/>
<stop offset="0.5" stop-color="#85B8E6" stop-opacity="0.5"/>
<stop offset="1" stop-color="#3297F4" stop-opacity="0"/>
</radialGradient>
<linearGradient id="paint17_linear_14_18" x1="81.3472" y1="197.528" x2="115.716" y2="180.572" gradientUnits="userSpaceOnUse">
<stop stop-color="#EF50F2"/>
<stop offset="1" stop-color="#8A2F8C"/>
</linearGradient>
<radialGradient id="paint18_radial_14_18" cx="0" cy="0" r="1" gradientUnits="userSpaceOnUse" gradientTransform="translate(73.1667 203.272) rotate(-35.1279) scale(65.278 21.563)">
<stop stop-color="#EF50F2"/>
<stop offset="1" stop-color="#8A2F8C"/>
</radialGradient>
<radialGradient id="paint19_radial_14_18" cx="0" cy="0" r="1" gradientUnits="userSpaceOnUse" gradientTransform="translate(11.0968 10.6824) rotate(65.9154) scale(13.3121 11.9828)">
<stop stop-color="#D9D9D9"/>
<stop offset="0.506" stop-color="#E495E6" stop-opacity="0.499"/>
<stop offset="1" stop-color="#EF50F2" stop-opacity="0"/>
</radialGradient>
<radialGradient id="paint20_radial_14_18" cx="0" cy="0" r="1" gradientUnits="userSpaceOnUse" gradientTransform="translate(82.6389 178.526) rotate(-74.4438) scale(22.4763 16.3877)">
<stop stop-color="#00FF57"/>
<stop offset="1" stop-color="#00E324"/>
</radialGradient>
<linearGradient id="paint21_linear_14_18" x1="86.0833" y1="177.2" x2="79.8878" y2="183.668" gradientUnits="userSpaceOnUse">
<stop stop-color="#00FF57"/>
<stop offset="1" stop-color="#009934"/>
</linearGradient>
<radialGradient id="paint22_radial_14_18" cx="0" cy="0" r="1" gradientUnits="userSpaceOnUse" gradientTransform="translate(13.8948 15.802) rotate(82.4335) scale(27.8965 3.85873)">
<stop stop-color="#D9D9D9"/>
<stop offset="0.501" stop-color="#6EEC99" stop-opacity="0.509"/>
<stop offset="1" stop-color="#00FF57" stop-opacity="0"/>
</radialGradient>
</defs>
</svg>
